<?xml version="1.0" standalone="no"?>
<!DOCTYPE svg PUBLIC "-//W3C//DTD SVG 20010904//EN"
 "http://www.w3.org/TR/2001/REC-SVG-20010904/DTD/svg10.dtd">
<svg version="1.0" xmlns="http://www.w3.org/2000/svg"
 width="512.000000pt" height="512.000000pt" viewBox="0 0 512.000000 512.000000"
 preserveAspectRatio="xMidYMid meet">
<metadata>
Created by potrace 1.14, written by Peter Selinger 2001-2017
</metadata>
<g transform="translate(0.000000,512.000000) scale(0.100000,-0.100000)"
fill="#000000" stroke="none">
<path d="M278 5091 l-33 -29 0 -2502 0 -2502 33 -29 32 -29 2240 0 c1398 0
2248 4 2264 10 14 5 33 21 42 36 17 25 18 166 18 2514 0 2349 -1 2489 -18
2514 -9 15 -28 31 -42 36 -16 6 -866 10 -2264 10 l-2240 0 -32 -29z"/>
</g>
</svg>
